<svg width="400" height="200" viewBox="0 0 400 200" fill="none" xmlns="http://www.w3.org/2000/svg">
<g clip-path="url(#clip0_3_2)">
<rect width="400" height="200" rx="20" fill="#4FC662"/>
<path d="M84.2836 54.4925H59.6786V33.125H50.6136V84H59.6786V62.725H84.2836V84H93.2561V33.125H84.2836V54.4925ZM135.133 84.0925V48.48H126.438V75.12C123.971 76.5383 121.381 77.2475 118.668 77.2475C116.201 77.2475 114.505 76.5075 113.58 75.0275C112.655 73.5475 112.193 71.8517 112.193 69.94V48.48H103.405V68.7375C103.405 73.2392 104.207 77.0625 105.81 80.2075C107.475 83.2908 110.99 84.8325 116.355 84.8325C118.452 84.8325 120.302 84.555 121.905 84C123.57 83.445 125.574 82.6125 127.918 81.5025L129.028 84.0925H135.133ZM168.161 49.405C165.941 48.4183 163.135 47.925 159.743 47.925C157.092 47.925 154.44 48.5417 151.788 49.775C149.137 51.0083 146.886 53.0125 145.036 55.7875C143.248 58.5625 142.353 62.0775 142.353 66.3325C142.353 72.0058 143.957 76.5075 147.163 79.8375C150.432 83.1675 154.872 84.8325 160.483 84.8325C163.69 84.8325 166.866 83.9075 170.011 82.0575L170.658 84H177.041V33.125H168.161V49.405ZM161.778 54.8625C164.183 54.8625 166.311 55.2633 168.161 56.065V76.1375C166.373 77.3092 164.338 77.895 162.056 77.895C158.849 77.895 156.29 77.0317 154.378 75.305C152.467 73.5783 151.511 70.7417 151.511 66.795C151.511 58.84 154.933 54.8625 161.778 54.8625ZM210.436 49.405C208.216 48.4183 205.41 47.925 202.019 47.925C199.367 47.925 196.715 48.5417 194.064 49.775C191.412 51.0083 189.161 53.0125 187.311 55.7875C185.523 58.5625 184.629 62.0775 184.629 66.3325C184.629 72.0058 186.232 76.5075 189.439 79.8375C192.707 83.1675 197.147 84.8325 202.759 84.8325C205.965 84.8325 209.141 83.9075 212.286 82.0575L212.934 84H219.316V33.125H210.436V49.405ZM204.054 54.8625C206.459 54.8625 208.586 55.2633 210.436 56.065V76.1375C208.648 77.3092 206.613 77.895 204.331 77.895C201.125 77.895 198.565 77.0317 196.654 75.305C194.742 73.5783 193.786 70.7417 193.786 66.795C193.786 58.84 197.209 54.8625 204.054 54.8625ZM241.889 77.895C240.348 77.895 239.268 77.4325 238.652 76.5075C238.097 75.5208 237.819 74.1025 237.819 72.2525V33.125H229.124V74.8425C229.124 81.5025 232.146 84.8325 238.189 84.8325C240.964 84.8325 243.616 84.2467 246.144 83.075V77.2475C244.541 77.6792 243.123 77.895 241.889 77.895ZM265.916 47.925C263.018 47.925 260.304 48.6958 257.776 50.2375C255.309 51.7175 253.305 53.8758 251.764 56.7125C250.222 59.4875 249.451 62.725 249.451 66.425C249.451 71.975 251.054 76.4458 254.261 79.8375C257.468 83.2292 262.124 84.925 268.229 84.925C272.607 84.925 276.8 84.2158 280.809 82.7975L279.236 76.785C276.276 77.525 273.008 77.895 269.431 77.895C266.039 77.895 263.419 77.3092 261.569 76.1375C259.719 74.9658 258.67 72.8692 258.424 69.8475H282.566V66.425C282.566 60.69 281.117 56.1883 278.219 52.92C275.382 49.59 271.281 47.925 265.916 47.925ZM266.101 54.8625C268.383 54.8625 270.233 55.6333 271.651 57.175C273.069 58.655 273.779 60.8133 273.779 63.65H258.609C258.732 60.875 259.534 58.7167 261.014 57.175C262.555 55.6333 264.251 54.8625 266.101 54.8625Z" fill="#FFEFB8"/>
<path d="M180.736 145.603V153.65H194.056V164.473C192.823 165.151 191.559 165.644 190.264 165.952C189.03 166.261 187.427 166.415 185.454 166.415C181.815 166.415 178.547 165.644 175.649 164.103C172.812 162.499 170.561 160.31 168.896 157.535C167.293 154.76 166.491 151.646 166.491 148.193C166.491 144.739 167.324 141.718 168.989 139.128C170.654 136.476 172.843 134.472 175.556 133.115C178.27 131.697 181.168 130.987 184.251 130.987C186.595 130.987 188.876 131.327 191.096 132.005C193.378 132.622 195.382 133.392 197.109 134.318L198.404 134.872L202.196 127.935L200.901 127.195C195.66 124.173 190.017 122.663 183.974 122.663C178.485 122.663 173.706 123.865 169.636 126.27C165.628 128.675 162.575 131.851 160.479 135.797C158.382 139.744 157.334 143.999 157.334 148.562C157.334 152.941 158.32 157.134 160.294 161.143C162.267 165.151 165.258 168.45 169.266 171.04C173.275 173.568 178.177 174.832 183.974 174.832C192.114 174.647 198.435 172.613 202.936 168.728V145.603H180.736ZM243.185 174.092V138.48H234.49V165.12C232.024 166.538 229.434 167.248 226.72 167.248C224.254 167.248 222.558 166.508 221.633 165.028C220.708 163.548 220.245 161.852 220.245 159.94V138.48H211.458V158.738C211.458 163.239 212.26 167.063 213.863 170.208C215.528 173.291 219.043 174.832 224.408 174.832C226.505 174.832 228.355 174.555 229.958 174C231.623 173.445 233.627 172.613 235.97 171.503L237.08 174.092H243.185ZM252.256 174H261.136V138.48H252.256V174ZM256.696 132.468C255.154 132.468 253.829 131.913 252.719 130.802C251.609 129.693 251.054 128.367 251.054 126.825C251.054 125.222 251.609 123.896 252.719 122.848C253.829 121.738 255.154 121.182 256.696 121.182C258.299 121.182 259.625 121.738 260.674 122.848C261.784 123.896 262.339 125.222 262.339 126.825C262.339 128.367 261.784 129.693 260.674 130.802C259.625 131.913 258.299 132.468 256.696 132.468ZM294.136 139.405C291.916 138.418 289.11 137.925 285.718 137.925C283.066 137.925 280.415 138.542 277.763 139.775C275.111 141.008 272.861 143.013 271.011 145.788C269.222 148.563 268.328 152.078 268.328 156.333C268.328 162.006 269.931 166.508 273.138 169.838C276.406 173.168 280.846 174.832 286.458 174.832C289.665 174.832 292.841 173.907 295.986 172.058L296.633 174H303.016V123.125H294.136V139.405ZM287.753 144.863C290.158 144.863 292.286 145.263 294.136 146.065V166.138C292.347 167.309 290.312 167.895 288.031 167.895C284.824 167.895 282.265 167.032 280.353 165.305C278.441 163.578 277.486 160.742 277.486 156.795C277.486 148.84 280.908 144.863 287.753 144.863ZM327.068 137.925C324.17 137.925 321.457 138.696 318.928 140.238C316.462 141.718 314.458 143.876 312.916 146.712C311.374 149.487 310.603 152.725 310.603 156.425C310.603 161.975 312.207 166.446 315.413 169.838C318.62 173.229 323.276 174.925 329.381 174.925C333.759 174.925 337.953 174.216 341.961 172.798L340.388 166.785C337.428 167.525 334.16 167.895 330.583 167.895C327.192 167.895 324.571 167.309 322.721 166.138C320.871 164.966 319.823 162.869 319.576 159.848H343.718V156.425C343.718 150.69 342.269 146.188 339.371 142.92C336.534 139.59 332.433 137.925 327.068 137.925ZM327.253 144.863C329.535 144.863 331.385 145.633 332.803 147.175C334.222 148.655 334.931 150.813 334.931 153.65H319.761C319.884 150.875 320.686 148.717 322.166 147.175C323.708 145.633 325.403 144.863 327.253 144.863Z" fill="#FFEFB8"/>
</g>
<defs>
<clipPath id="clip0_3_2">
<rect width="400" height="200" fill="white"/>
</clipPath>
</defs>
</svg>
