<svg width="400" height="200" viewBox="0 0 400 200" fill="none" xmlns="http://www.w3.org/2000/svg">
<g clip-path="url(#clip0_1_2)">
<rect width="400" height="200" rx="20" fill="#4FC662"/>
<path d="M80.1912 57.48H58.9113V39H51.0712V83H58.9113V64.6H80.1912V83H87.9512V39H80.1912V57.48ZM124.169 83.08V52.28H116.649V75.32C114.515 76.5467 112.275 77.16 109.929 77.16C107.795 77.16 106.329 76.52 105.529 75.24C104.729 73.96 104.329 72.4933 104.329 70.84V52.28H96.7287V69.8C96.7287 73.6933 97.4221 77 98.8087 79.72C100.249 82.3867 103.289 83.72 107.929 83.72C109.742 83.72 111.342 83.48 112.729 83C114.169 82.52 115.902 81.8 117.929 80.84L118.889 83.08H124.169ZM152.734 53.08C150.814 52.2267 148.387 51.8 145.454 51.8C143.16 51.8 140.867 52.3333 138.574 53.4C136.28 54.4667 134.334 56.2 132.734 58.6C131.187 61 130.414 64.04 130.414 67.72C130.414 72.6267 131.8 76.52 134.574 79.4C137.4 82.28 141.24 83.72 146.094 83.72C148.867 83.72 151.614 82.92 154.334 81.32L154.894 83H160.414V39H152.734V53.08ZM147.214 57.8C149.294 57.8 151.134 58.1467 152.734 58.84V76.2C151.187 77.2133 149.427 77.72 147.454 77.72C144.68 77.72 142.467 76.9733 140.814 75.48C139.16 73.9867 138.334 71.5333 138.334 68.12C138.334 61.24 141.294 57.8 147.214 57.8ZM189.296 53.08C187.376 52.2267 184.95 51.8 182.016 51.8C179.723 51.8 177.43 52.3333 175.136 53.4C172.843 54.4667 170.896 56.2 169.296 58.6C167.75 61 166.976 64.04 166.976 67.72C166.976 72.6267 168.363 76.52 171.136 79.4C173.963 82.28 177.803 83.72 182.656 83.72C185.43 83.72 188.176 82.92 190.896 81.32L191.456 83H196.976V39H189.296V53.08ZM183.776 57.8C185.856 57.8 187.696 58.1467 189.296 58.84V76.2C187.75 77.2133 185.99 77.72 184.016 77.72C181.243 77.72 179.03 76.9733 177.376 75.48C175.723 73.9867 174.896 71.5333 174.896 68.12C174.896 61.24 177.856 57.8 183.776 57.8ZM216.499 77.72C215.165 77.72 214.232 77.32 213.699 76.52C213.219 75.6667 212.979 74.44 212.979 72.84V39H205.459V75.08C205.459 80.84 208.072 83.72 213.299 83.72C215.699 83.72 217.992 83.2133 220.179 82.2V77.16C218.792 77.5333 217.565 77.72 216.499 77.72ZM237.279 51.8C234.772 51.8 232.425 52.4667 230.239 53.8C228.105 55.08 226.372 56.9467 225.039 59.4C223.705 61.8 223.039 64.6 223.039 67.8C223.039 72.6 224.425 76.4667 227.199 79.4C229.972 82.3333 233.999 83.8 239.279 83.8C243.065 83.8 246.692 83.1867 250.159 81.96L248.799 76.76C246.239 77.4 243.412 77.72 240.319 77.72C237.385 77.72 235.119 77.2133 233.519 76.2C231.919 75.1867 231.012 73.3733 230.799 70.76H251.679V67.8C251.679 62.84 250.425 58.9467 247.919 56.12C245.465 53.24 241.919 51.8 237.279 51.8ZM237.439 57.8C239.412 57.8 241.012 58.4667 242.239 59.8C243.465 61.08 244.079 62.9467 244.079 65.4H230.959C231.065 63 231.759 61.1333 233.039 59.8C234.372 58.4667 235.839 57.8 237.439 57.8Z" fill="#FFEFB8"/>
<path d="M210.096 137.44V144.4H221.616V153.76C220.55 154.347 219.456 154.773 218.336 155.04C217.27 155.307 215.883 155.44 214.176 155.44C211.03 155.44 208.203 154.773 205.696 153.44C203.243 152.053 201.296 150.16 199.856 147.76C198.47 145.36 197.776 142.667 197.776 139.68C197.776 136.693 198.496 134.08 199.936 131.84C201.376 129.547 203.27 127.813 205.616 126.64C207.963 125.413 210.47 124.8 213.136 124.8C215.163 124.8 217.136 125.093 219.056 125.68C221.03 126.213 222.763 126.88 224.256 127.68L225.376 128.16L228.656 122.16L227.536 121.52C223.003 118.907 218.123 117.6 212.896 117.6C208.15 117.6 204.016 118.64 200.496 120.72C197.03 122.8 194.39 125.547 192.576 128.96C190.763 132.373 189.856 136.053 189.856 140C189.856 143.787 190.71 147.413 192.416 150.88C194.123 154.347 196.71 157.2 200.176 159.44C203.643 161.627 207.883 162.72 212.896 162.72C219.936 162.56 225.403 160.8 229.296 157.44V137.44H210.096ZM264.106 162.08V131.28H256.586V154.32C254.453 155.547 252.213 156.16 249.866 156.16C247.733 156.16 246.266 155.52 245.466 154.24C244.666 152.96 244.266 151.493 244.266 149.84V131.28H236.666V148.8C236.666 152.693 237.36 156 238.746 158.72C240.186 161.387 243.226 162.72 247.866 162.72C249.68 162.72 251.28 162.48 252.666 162C254.106 161.52 255.84 160.8 257.866 159.84L258.826 162.08H264.106ZM271.951 162H279.631V131.28H271.951V162ZM275.791 126.08C274.458 126.08 273.311 125.6 272.351 124.64C271.391 123.68 270.911 122.533 270.911 121.2C270.911 119.813 271.391 118.667 272.351 117.76C273.311 116.8 274.458 116.32 275.791 116.32C277.178 116.32 278.325 116.8 279.231 117.76C280.191 118.667 280.671 119.813 280.671 121.2C280.671 122.533 280.191 123.68 279.231 124.64C278.325 125.6 277.178 126.08 275.791 126.08ZM308.171 132.08C306.251 131.227 303.825 130.8 300.891 130.8C298.598 130.8 296.305 131.333 294.011 132.4C291.718 133.467 289.771 135.2 288.171 137.6C286.625 140 285.851 143.04 285.851 146.72C285.851 151.627 287.238 155.52 290.011 158.4C292.838 161.28 296.678 162.72 301.531 162.72C304.305 162.72 307.051 161.92 309.771 160.32L310.331 162H315.851V118H308.171V132.08ZM302.651 136.8C304.731 136.8 306.571 137.147 308.171 137.84V155.2C306.625 156.213 304.865 156.72 302.891 156.72C300.118 156.72 297.905 155.973 296.251 154.48C294.598 152.987 293.771 150.533 293.771 147.12C293.771 140.24 296.731 136.8 302.651 136.8ZM336.654 130.8C334.147 130.8 331.8 131.467 329.614 132.8C327.48 134.08 325.747 135.947 324.414 138.4C323.08 140.8 322.414 143.6 322.414 146.8C322.414 151.6 323.8 155.467 326.574 158.4C329.347 161.333 333.374 162.8 338.654 162.8C342.44 162.8 346.067 162.187 349.534 160.96L348.174 155.76C345.614 156.4 342.787 156.72 339.694 156.72C336.76 156.72 334.494 156.213 332.894 155.2C331.294 154.187 330.387 152.373 330.174 149.76H351.054V146.8C351.054 141.84 349.8 137.947 347.294 135.12C344.84 132.24 341.294 130.8 336.654 130.8ZM336.814 136.8C338.787 136.8 340.387 137.467 341.614 138.8C342.84 140.08 343.454 141.947 343.454 144.4H330.334C330.44 142 331.134 140.133 332.414 138.8C333.747 137.467 335.214 136.8 336.814 136.8Z" fill="#FFEFB8"/>
</g>
<defs>
<clipPath id="clip0_1_2">
<rect width="400" height="200" fill="white"/>
</clipPath>
</defs>
</svg>
